<?xml version="1.0" standalone="no"?>
<!DOCTYPE svg PUBLIC "-//W3C//DTD SVG 20010904//EN"
 "http://www.w3.org/TR/2001/REC-SVG-20010904/DTD/svg10.dtd">
<svg version="1.0" xmlns="http://www.w3.org/2000/svg"
 width="567.000000pt" height="567.000000pt" viewBox="0 0 567.000000 567.000000"
 preserveAspectRatio="xMidYMid meet">
<metadata>
Created by potrace 1.11, written by Peter Selinger 2001-2013
</metadata>
<g transform="translate(0.000000,567.000000) scale(0.100000,-0.100000)"
fill="#000000" stroke="none">
<path d="M0 2835 l0 -2835 2835 0 2835 0 0 2835 0 2835 -2835 0 -2835 0 0
-2835z m4365 1035 l0 -1575 -1575 0 -1575 0 -3 1565 c-1 861 0 1571 3 1578 3
10 324 12 1577 10 l1573 -3 0 -1575z m-4043 -3112 l3 -423 150 -5 150 -5 0
-45 0 -45 -212 -3 -213 -2 0 475 0 475 60 0 60 0 2 -422z m2724 -50 l-1 -473
-58 -3 c-44 -2 -57 0 -51 9 5 9 0 10 -22 3 -16 -5 -76 -9 -134 -9 -128 0 -176
20 -212 88 -22 40 -23 53 -23 247 0 226 4 242 65 293 43 37 89 47 213 47 l107
0 0 135 0 135 58 0 58 0 0 -472z m604 412 l0 -60 -65 0 -65 0 0 60 0 60 65 0
65 0 0 -60z m1580 0 l0 -60 -65 0 -65 0 0 60 0 60 65 0 65 0 0 -60z m-3955
-221 c52 -15 91 -43 113 -82 14 -27 18 -69 22 -252 l5 -220 33 -10 c30 -9 32
-12 32 -57 l0 -48 -47 0 c-29 0 -60 7 -79 19 -29 18 -31 18 -54 -1 -22 -18
-37 -20 -145 -16 -143 4 -177 18 -206 81 -22 48 -25 173 -6 222 36 92 83 115
234 115 l113 0 0 51 c0 95 -26 109 -196 109 l-114 0 0 50 0 50 128 0 c70 0
145 -5 167 -11z m585 -3 c0 -13 4 -13 28 0 35 18 183 18 235 0 50 -18 76 -42
98 -91 17 -36 19 -69 19 -307 l0 -268 -54 0 -55 0 -3 265 c-3 260 -3 265 -26
287 -20 20 -32 23 -108 23 -82 0 -87 -1 -110 -28 l-24 -28 0 -260 0 -259 -55
0 -55 0 0 340 0 340 55 0 c41 0 55 -4 55 -14z m1780 -276 l0 -290 100 0 100 0
0 -50 0 -51 -157 3 -157 3 -1 285 0 285 -97 3 -98 3 0 49 0 50 155 0 155 0 0
-290z m600 276 c0 -13 4 -13 28 0 35 18 183 18 235 0 50 -18 76 -42 98 -91 17
-36 19 -69 19 -307 l0 -268 -54 0 -55 0 -3 265 c-3 260 -3 265 -26 287 -20 20
-32 23 -108 23 -82 0 -87 -1 -110 -28 l-24 -28 0 -260 0 -259 -55 0 -55 0 0
340 0 340 55 0 c41 0 55 -4 55 -14z m980 -276 l0 -290 100 0 100 0 0 -50 0
-51 -157 3 -157 3 -1 285 0 285 -97 3 -98 3 0 49 0 50 155 0 155 0 0 -290z"/>
<path d="M1290 3870 l0 -1500 1500 0 1500 0 0 1500 0 1500 -1500 0 -1500 0 0
-1500z m1329 944 c19 -24 21 -40 21 -185 0 -152 -1 -159 -20 -159 -19 0 -20 7
-20 154 0 118 -3 156 -14 165 -9 8 -114 11 -367 9 l-354 -3 -3 -102 c-2 -95
-4 -103 -22 -103 -19 0 -20 7 -20 102 0 91 2 104 22 125 l21 23 368 0 368 0
20 -26z m-75 -50 c14 -5 16 -28 16 -150 0 -137 -1 -144 -20 -144 -19 0 -20 7
-20 125 l0 125 -290 0 -290 0 0 -65 c0 -62 -1 -65 -24 -65 -23 0 -23 2 -22 78
1 42 5 83 9 90 6 9 81 12 317 12 169 0 315 -3 324 -6z m1016 -149 l24 -26
-732 -732 -732 -732 -27 28 -28 27 730 730 c402 402 733 730 736 730 3 0 16
-11 29 -25z m-1382 -57 c17 -17 17 -509 0 -526 -15 -15 -390 -17 -419 -2 -18
10 -19 24 -19 263 0 184 3 256 12 265 17 17 409 17 426 0z m530 -312 c2 -138
-1 -203 -9 -212 -18 -21 -242 -20 -263 2 -13 13 -16 46 -16 203 0 134 3 190
12 199 9 9 50 12 143 10 l130 -3 3 -199z m-308 34 c0 -19 -7 -20 -95 -20 -88
0 -95 1 -95 20 0 19 7 20 95 20 88 0 95 -1 95 -20z m0 -60 c0 -15 -7 -20 -25
-20 -14 0 -25 -4 -25 -10 0 -5 11 -10 25 -10 18 0 25 -5 25 -20 0 -17 -7 -20
-50 -20 l-50 0 0 50 0 50 50 0 c43 0 50 -3 50 -20z m0 -120 c0 -19 -7 -20 -95
-20 -88 0 -95 1 -95 20 0 19 7 20 95 20 88 0 95 -1 95 -20z m1000 -780 l0
-280 100 0 100 0 0 -35 0 -35 -140 0 -140 0 0 315 0 315 40 0 40 0 0 -280z"/>
<path d="M1780 4295 l0 -235 185 0 185 0 0 235 0 235 -185 0 -185 0 0 -235z
m345 20 l0 -190 -162 -3 -163 -2 0 195 0 195 163 -2 162 -3 0 -190z m-145
-219 c0 -8 -5 -18 -11 -22 -14 -8 -33 11 -25 25 10 16 36 13 36 -3z"/>
<path d="M1840 4315 l0 -155 125 0 125 0 0 155 0 155 -125 0 -125 0 0 -155z"/>
<path d="M2460 4235 l0 -175 105 0 c63 0 105 4 106 10 1 6 1 19 1 30 0 11 0
85 -1 165 l-1 145 -105 0 -105 0 0 -175z m195 20 l0 -130 -85 0 -85 0 -3 133
-3 133 88 -3 88 -3 0 -130z m-70 -166 c0 -7 -8 -15 -17 -17 -18 -3 -25 18 -11
32 10 10 28 1 28 -15z"/>
<path d="M2520 4255 l0 -95 50 0 50 0 0 95 0 95 -50 0 -50 0 0 -95z"/>
<path d="M2720 803 c-8 -3 -25 -15 -37 -26 -22 -20 -23 -26 -23 -203 0 -178 1
-184 24 -210 20 -24 32 -28 89 -32 80 -5 130 10 146 44 7 16 11 97 11 229 l0
205 -97 -1 c-54 0 -105 -3 -113 -6z"/>
<path d="M1076 529 c-24 -19 -26 -26 -26 -94 0 -68 2 -76 25 -91 33 -22 191
-17 205 6 5 8 10 57 10 108 l0 92 -94 0 c-79 0 -97 -3 -120 -21z"/>
</g>
</svg>
